<svg width="801" height="105" viewBox="0 0 801 105" fill="none" xmlns="http://www.w3.org/2000/svg">
<path d="M32.4247 84.5325C31.6569 83.9779 31.0846 83.1953 30.7898 82.2968C30.495 81.3982 30.4928 80.4297 30.7835 79.5298L31.7223 75.6564C31.89 74.9755 32.1993 74.3373 32.6302 73.7833C33.0611 73.2292 33.604 72.7717 34.2236 72.4404L37.3054 70.8252C39.2065 69.8398 40.7245 68.2512 41.6199 66.3102C42.5154 64.3691 42.7372 62.186 42.2506 60.1053L42.2076 59.9123C41.637 57.5823 40.2153 55.5482 38.2205 54.208C36.2257 52.8678 33.8012 52.3179 31.4213 52.6657L27.974 53.1588C27.2732 53.2591 26.5589 53.2104 25.8783 53.0157C25.1977 52.8211 24.5661 52.4851 24.025 52.0296L20.9791 49.4497C20.2231 48.8856 19.6617 48.1011 19.3728 47.2048C19.0839 46.3084 19.0817 45.3447 19.3665 44.4471C20.015 42.4583 19.9965 40.3131 19.3136 38.3358C18.6308 36.3585 17.3208 34.6568 15.5818 33.4879C13.8428 32.319 11.7694 31.7466 9.67511 31.8572C7.58086 31.9678 5.5797 32.7555 3.97428 34.101C2.36887 35.4466 1.24652 37.2768 0.776989 39.315C0.307458 41.3531 0.516285 43.4883 1.37188 45.3976C2.22748 47.3069 3.68332 48.8864 5.5192 49.8973C7.35508 50.9082 9.47115 51.2955 11.5474 51.0005V51.0005C11.8842 50.9505 12.2139 50.879 12.5436 50.8004L13.4394 50.6289C14.1835 50.4822 14.9512 50.5057 15.6849 50.6976C16.4185 50.8895 17.099 51.2447 17.6751 51.7366L21.8176 55.3099C22.4507 55.8628 22.9342 56.5656 23.2235 57.3536C23.5128 58.1417 23.5987 58.9896 23.4732 59.8194L23.3728 60.4483L23.2868 60.9986V61.0487C23.1522 62.1957 23.225 63.3576 23.5018 64.479C23.5018 64.5434 23.5018 64.6077 23.552 64.6648V64.7363C23.9493 66.2572 24.7174 67.6566 25.7881 68.8099V68.8099C25.9171 68.9457 26.0461 69.0743 26.1823 69.203L26.6338 69.6532C27.2299 70.2558 27.6629 70.9994 27.8923 71.8143C28.1216 72.6293 28.1399 73.4889 27.9454 74.3128L26.684 79.6084C26.5106 80.3445 26.1704 81.0312 25.6896 81.6159C25.2089 82.2006 24.6002 82.6678 23.9104 82.9816L23.1363 83.339C22.8204 83.4619 22.5117 83.6027 22.2118 83.7606V83.7606C20.802 84.5026 19.5999 85.5834 18.7143 86.9051C17.2507 88.9977 16.6807 91.5843 17.1296 94.0959C17.5785 96.6075 19.0096 98.8385 21.1081 100.298C23.2066 101.757 25.8005 102.326 28.3193 101.878C30.8381 101.431 33.0753 100.003 34.5389 97.9109C35.4051 96.7269 35.9863 95.36 36.2375 93.916C36.3032 93.5903 36.3487 93.261 36.3737 92.9297L36.474 92.0864C36.4167 90.6038 36.0225 89.1534 35.321 87.8448C34.6195 86.5363 33.6292 85.4037 32.4247 84.5325V84.5325Z" fill="#1B1C21" fill-opacity="0.2"/>
<path d="M106.132 38.5149C105.624 36.9634 104.729 35.566 103.531 34.4539C102.333 33.3419 100.871 32.5516 99.2824 32.1572C97.694 31.7628 96.0313 31.7774 94.4501 32.1994C92.8689 32.6215 91.4212 33.4372 90.2428 34.57V34.57C89.9915 34.7955 89.7523 35.0341 89.5261 35.2847L88.9456 35.9136C88.4317 36.4684 87.7985 36.9 87.0935 37.176C86.3885 37.452 85.63 37.5653 84.8748 37.5073L79.4279 37.0642C78.5811 36.9943 77.7659 36.711 77.0589 36.241C76.3519 35.771 75.7762 35.1296 75.3858 34.3771L75.0991 33.8125C75.0131 33.6409 74.9342 33.4766 74.8411 33.3194V33.2693C74.2753 32.2596 73.5297 31.3611 72.6408 30.6179L72.4975 30.5036L72.433 30.4464C71.2134 29.4545 69.7692 28.7749 68.226 28.4668H68.1686L67.6168 28.3739L66.9789 28.3239C66.1413 28.1871 65.3521 27.8407 64.6852 27.317C64.0184 26.7933 63.4957 26.1094 63.1661 25.3294L61.059 20.3268C60.7687 19.628 60.6411 18.8726 60.6858 18.1175C60.7305 17.3624 60.9463 16.6273 61.3171 15.9674L61.7399 15.2527C61.9215 14.9668 62.0863 14.6738 62.2344 14.3737C62.8834 13.0599 63.2194 11.6145 63.2163 10.15C63.1478 7.64324 62.101 5.26208 60.2987 3.5132C58.4964 1.76432 56.0808 0.785767 53.566 0.785767C51.0512 0.785767 48.6356 1.76432 46.8333 3.5132C45.031 5.26208 43.9842 7.64324 43.9157 10.15C43.9126 11.6145 44.2486 13.0599 44.8976 14.3737V14.3737C45.0505 14.6738 45.2153 14.9668 45.3921 15.2527L45.8149 15.9674C46.1857 16.6273 46.4015 17.3624 46.4462 18.1175C46.4909 18.8726 46.3633 19.628 46.073 20.3268L43.9659 25.3294C43.6388 26.1058 43.1205 26.7873 42.459 27.3107C41.7976 27.8342 41.0142 28.1827 40.1817 28.3239L39.5582 28.4239L38.9992 28.5168H38.949C37.8095 28.7406 36.721 29.1718 35.7382 29.7889L35.5949 29.8818C35.5661 29.8942 35.5395 29.9111 35.516 29.9319C34.1868 30.7818 33.0908 31.9485 32.3268 33.3265V33.3765C32.2407 33.5337 32.1547 33.7053 32.0759 33.8696C28.1628 42.2455 36.7273 46.8908 37.8095 47.1766C39.1313 47.5749 40.5209 47.6992 41.8927 47.5419C43.2646 47.3846 44.5896 46.949 45.7863 46.2619L45.9655 46.1475C48.0075 44.884 49.5017 42.9045 50.1542 40.598C50.8067 38.2916 50.5703 35.8253 49.4916 33.6838V33.6838L47.9292 30.5393C47.6168 29.9055 47.4425 29.2129 47.4178 28.5071C47.3931 27.8013 47.5185 27.0983 47.7859 26.4443L49.2766 22.7566C49.5781 21.8653 50.1525 21.0907 50.9188 20.5421C51.6851 19.9934 52.6047 19.6983 53.5481 19.6983C54.4915 19.6983 55.4111 19.9934 56.1774 20.5421C56.9437 21.0907 57.518 21.8653 57.8196 22.7566L59.339 26.4443C59.6074 27.0978 59.7341 27.8005 59.7106 28.5063C59.6871 29.2121 59.5141 29.905 59.2028 30.5393L57.6619 33.6552C56.7017 35.5722 56.4129 37.7545 56.8415 39.8542C57.2702 41.9539 58.3916 43.8499 60.027 45.2399L60.1775 45.3757C61.43 46.4285 62.9312 47.1452 64.539 47.4579C66.1469 47.7705 67.8081 47.6688 69.3655 47.1624C70.7937 46.708 72.0932 45.9217 73.1568 44.8683L75.6581 42.4456C76.1622 41.946 76.7678 41.5598 77.4342 41.3133C78.1006 41.0667 78.8122 40.9655 79.5211 41.0163L83.5059 41.3164C84.4487 41.3287 85.3644 41.6333 86.1259 42.1877C86.8874 42.7422 87.4571 43.5191 87.7559 44.4109C88.3651 46.2833 89.906 49.8781 95.5464 50.9572C97.1678 51.1859 98.821 50.9995 100.35 50.4155C101.88 49.8316 103.235 48.8694 104.288 47.6193C105.342 46.3693 106.059 44.8725 106.373 43.2698C106.687 41.6671 106.587 40.0112 106.082 38.4578L106.132 38.5149Z" fill="#EC1D35"/>
<path d="M71.2987 53.0372C69.9916 53.4863 68.7916 54.2 67.7741 55.1334C66.7566 56.0669 65.9436 57.1999 65.386 58.4615C65.386 58.5258 65.3287 58.5901 65.3072 58.6544C64.4091 60.8751 64.3725 63.3497 65.2046 65.5958C66.0367 67.8419 67.6778 69.6985 69.808 70.8037V70.8037L72.8969 72.4188C73.5221 72.7494 74.0701 73.2081 74.5049 73.7648C74.9397 74.3216 75.2515 74.9637 75.4197 75.6491L76.3658 79.5226C76.655 80.4212 76.6524 81.3879 76.3582 82.2849C76.064 83.1819 75.4933 83.9634 74.7275 84.5179C73.9616 85.0725 73.0398 85.3717 72.0933 85.373C71.1469 85.3743 70.2242 85.0776 69.4568 84.5252L66.0525 82.4384C65.4489 82.0711 64.93 81.5807 64.5298 80.9993C64.1296 80.418 63.8572 79.7589 63.7304 79.0652L63.1427 75.642C62.7936 73.5289 61.7464 71.5928 60.1673 70.1413C58.5883 68.6898 56.5681 67.8061 54.4277 67.6306H54.2199C51.8216 67.4575 49.4449 68.1838 47.5557 69.6671C45.6665 71.1504 44.4009 73.2838 44.007 75.6491V75.6491C42.6453 83.7963 49.9914 86.4477 52.8367 86.8121H53.1018C54.674 86.9018 56.2443 86.6048 57.6744 85.9474H57.7245L58.2262 85.6973L58.7924 85.4114C59.5508 85.0303 60.3938 84.8475 61.2425 84.88C62.0911 84.9125 62.9176 85.1593 63.6444 85.5972L68.3101 88.4559C68.9582 88.8481 69.5077 89.3831 69.9164 90.0198C70.3251 90.6565 70.5822 91.3781 70.668 92.1292L70.7684 92.9725C70.7909 93.3104 70.8315 93.6467 70.8902 93.9802V93.9802C71.1705 95.591 71.8576 97.104 72.8867 98.3766C73.9158 99.6493 75.253 100.64 76.7722 101.254C78.2913 101.869 79.9425 102.088 81.5699 101.89C83.1974 101.692 84.7475 101.084 86.0741 100.124C87.4007 99.1632 88.4602 97.8816 89.1526 96.3997C89.845 94.9178 90.1475 93.2845 90.0316 91.6538C89.9158 90.023 89.3853 88.4486 88.4903 87.0789C87.5952 85.7091 86.3651 84.5893 84.9159 83.8249V83.8249C84.6149 83.6676 84.3067 83.5318 83.9914 83.4032L83.2173 83.0459C82.5283 82.7328 81.9202 82.2667 81.4394 81.6833C80.9587 81.0999 80.6181 80.4146 80.4437 79.6798L79.1824 74.377C78.9878 73.5531 79.0061 72.6935 79.2355 71.8785C79.4648 71.0636 79.8978 70.32 80.4939 69.7174L80.9454 69.2672C81.0816 69.1385 81.2106 69.0099 81.3396 68.8741V68.8312C82.129 67.9852 82.7558 67.0017 83.1887 65.9297L83.2532 65.7653V65.6867C83.8224 64.2233 84.0242 62.6433 83.8409 61.0843V61.0271C82.5652 51.7151 73.3628 52.2725 71.2987 53.0372Z" fill="#402FFF"/>
<path d="M152.206 94.2297V86.6328H142.889C140.766 86.5858 138.692 85.9899 136.869 84.9033C134.862 83.7241 131.307 79.8149 130.211 78.2641C129.13 76.5858 128.59 74.6184 128.663 72.6254V45.2396C128.581 43.2208 129.121 41.2255 130.211 39.5223C131.307 38.0929 134.862 34.1552 136.869 32.9688C138.694 31.8878 140.767 31.2945 142.889 31.2465H152.206V23.8712H162.333V31.2322H171.428C173.548 31.2916 175.619 31.884 177.448 32.9545C179.455 34.1409 182.924 38.0501 184.113 39.508C185.2 41.2127 185.74 43.2069 185.661 45.2253V72.6111C185.731 74.6037 185.191 76.5702 184.113 78.2498C182.924 79.8006 179.455 83.7098 177.448 84.889C175.621 85.9649 173.549 86.5601 171.428 86.6185H162.333V94.2154L152.206 94.2297ZM143.111 75.9915H152.206V41.8735H143.204C141.921 42.8613 140.784 44.0259 139.829 45.3325V72.6254C140.757 73.8972 141.862 75.0306 143.111 75.9915ZM174.531 45.261C173.654 43.9468 172.542 42.8056 171.249 41.8949H162.333V76.0129H171.156C172.394 75.0097 173.525 73.8817 174.531 72.6469V45.261Z" fill="#1B1C21"/>
<path d="M233.901 47.6048C232.902 45.257 231.216 43.2644 229.063 41.8875H212.852C211.48 42.9125 210.271 44.1389 209.268 45.5252V72.6394C210.188 74.0208 211.414 75.1725 212.852 76.0055H229.243C231.207 74.5786 232.803 72.7074 233.901 70.5455L244.3 73.0968C243.546 75.1722 242.501 77.1307 241.197 78.9142C239.004 82.0087 234.747 86.6468 229.157 86.6468H212.393C210.272 86.5874 208.201 85.9924 206.373 84.9173C204.459 83.7382 200.99 80.1005 199.715 78.371C198.685 76.6703 198.147 74.7189 198.16 72.7324V45.1464C198.078 43.1513 198.621 41.1804 199.715 39.5077C200.804 38.0784 204.366 34.2335 206.466 32.9542C208.274 31.9137 210.307 31.3229 212.393 31.2319H229.164C234.725 31.2319 238.925 35.8701 241.111 38.8716C242.406 40.6532 243.45 42.6033 244.214 44.6676L233.901 47.6048Z" fill="#1B1C21"/>
<path d="M289.524 86.1827V42.2381H266.468V86.1827H255.337V34.6627C255.341 33.8583 255.663 33.0879 256.234 32.5191C256.804 31.9503 257.577 31.6291 258.383 31.6254H297.608C298.415 31.6291 299.187 31.9503 299.758 32.5191C300.328 33.0879 300.65 33.8583 300.654 34.6627V86.2184L289.524 86.1827Z" fill="#1B1C21"/>
<path d="M333.995 57.5879V51.4483C331.812 51.4483 330.095 50.8344 328.845 49.6065C327.594 48.3558 326.969 46.6617 326.969 44.5242V39.5443C326.969 37.4296 327.594 35.7582 328.845 34.5303C330.118 33.3024 331.835 32.6884 333.995 32.6884V26.5488H336.929V32.6884C339.112 32.6884 340.828 33.3024 342.079 34.5303C343.33 35.7582 343.955 37.4296 343.955 39.5443V44.5242C343.955 46.6617 343.33 48.3558 342.079 49.6065C340.828 50.8344 339.112 51.4483 336.929 51.4483V57.5879H333.995ZM334.098 48.7878V35.3489C332.824 35.3489 331.835 35.7241 331.13 36.4745C330.425 37.2022 330.073 38.2255 330.073 39.5443V44.5242C330.073 45.8658 330.425 46.9119 331.13 47.6622C331.835 48.4126 332.824 48.7878 334.098 48.7878ZM336.826 48.7878C338.1 48.7878 339.089 48.4126 339.794 47.6622C340.499 46.9119 340.851 45.8658 340.851 44.5242V39.5443C340.851 38.2255 340.499 37.2022 339.794 36.4745C339.089 35.7241 338.1 35.3489 336.826 35.3489V48.7878ZM355.914 51.7894C354.413 51.7894 353.094 51.4938 351.957 50.9026C350.843 50.2886 349.979 49.4473 349.365 48.3785C348.751 47.287 348.444 46.0137 348.444 44.5583V39.5443C348.444 38.1118 348.751 36.8611 349.365 35.7924C349.979 34.7009 350.843 33.8595 351.957 33.2683C353.094 32.6543 354.413 32.3474 355.914 32.3474C357.415 32.3474 358.722 32.6543 359.836 33.2683C360.973 33.8595 361.849 34.7009 362.463 35.7924C363.077 36.8611 363.384 38.1118 363.384 39.5443V42.887H351.753V44.5583C351.753 46.0137 352.105 47.1165 352.81 47.8669C353.538 48.6173 354.572 48.9925 355.914 48.9925C357.051 48.9925 357.96 48.7992 358.643 48.4126C359.325 48.0033 359.757 47.4007 359.939 46.6049H363.281C363.054 48.1966 362.258 49.4586 360.894 50.391C359.552 51.3233 357.892 51.7894 355.914 51.7894ZM351.753 39.5443V40.4653H360.109V39.5443C360.109 38.1118 359.745 37.0203 359.018 36.2699C358.313 35.4967 357.278 35.1102 355.914 35.1102C354.55 35.1102 353.515 35.4967 352.81 36.2699C352.105 37.0203 351.753 38.1118 351.753 39.5443ZM367.122 56.2236V48.5491H368.589C368.953 48.1625 369.339 47.4235 369.749 46.332C370.181 45.2178 370.42 43.8079 370.465 42.1025L370.67 32.6884H383.119V48.5491H385.473V56.2236H382.437V51.4483H370.158V56.2236H367.122ZM372.102 48.5491H379.811V35.6559H373.842L373.705 42.1707C373.66 43.8989 373.455 45.3087 373.091 46.4002C372.75 47.4917 372.421 48.208 372.102 48.5491ZM396.818 51.7894C395.317 51.7894 393.998 51.4938 392.861 50.9026C391.747 50.2886 390.883 49.4473 390.269 48.3785C389.655 47.287 389.348 46.0137 389.348 44.5583V39.5443C389.348 38.1118 389.655 36.8611 390.269 35.7924C390.883 34.7009 391.747 33.8595 392.861 33.2683C393.998 32.6543 395.317 32.3474 396.818 32.3474C398.319 32.3474 399.626 32.6543 400.74 33.2683C401.877 33.8595 402.753 34.7009 403.367 35.7924C403.981 36.8611 404.288 38.1118 404.288 39.5443V42.887H392.657V44.5583C392.657 46.0137 393.009 47.1165 393.714 47.8669C394.442 48.6173 395.476 48.9925 396.818 48.9925C397.955 48.9925 398.864 48.7992 399.547 48.4126C400.229 48.0033 400.661 47.4007 400.843 46.6049H404.185C403.958 48.1966 403.162 49.4586 401.798 50.391C400.456 51.3233 398.796 51.7894 396.818 51.7894ZM392.657 39.5443V40.4653H401.013V39.5443C401.013 38.1118 400.649 37.0203 399.922 36.2699C399.217 35.4967 398.182 35.1102 396.818 35.1102C395.454 35.1102 394.419 35.4967 393.714 36.2699C393.009 37.0203 392.657 38.1118 392.657 39.5443ZM410.073 57.5879V32.6884H413.416V36.2017H413.45C413.677 34.9965 414.234 34.0528 415.121 33.3706C416.031 32.6884 417.179 32.3474 418.566 32.3474C420.431 32.3474 421.931 32.9841 423.068 34.2575C424.205 35.5081 424.774 37.2136 424.774 39.3738V44.7289C424.774 46.9119 424.205 48.64 423.068 49.9134C421.954 51.1641 420.453 51.7894 418.566 51.7894C417.202 51.7894 416.065 51.4483 415.155 50.7662C414.246 50.0612 413.677 49.1062 413.45 47.901H413.381L413.45 52.1646V57.5879H410.073ZM417.406 48.8561C418.657 48.8561 419.635 48.4922 420.34 47.7646C421.045 47.0142 421.397 45.9454 421.397 44.5583V39.5443C421.397 38.18 421.045 37.134 420.34 36.4063C419.635 35.6559 418.657 35.2807 417.406 35.2807C416.178 35.2807 415.212 35.6559 414.507 36.4063C413.802 37.1567 413.45 38.2141 413.45 39.5784V44.5583C413.45 45.9227 413.802 46.9801 414.507 47.7305C415.212 48.4809 416.178 48.8561 417.406 48.8561ZM435.982 51.7894C434.004 51.7894 432.446 51.2892 431.309 50.2886C430.195 49.2654 429.638 47.8896 429.638 46.1615C429.638 44.3878 430.218 43.0007 431.378 42.0002C432.56 40.9769 434.163 40.4653 436.187 40.4653H441.644V38.6916C441.644 37.6001 441.303 36.7588 440.621 36.1676C439.962 35.5536 439.041 35.2466 437.858 35.2466C436.79 35.2466 435.891 35.4854 435.164 35.9629C434.459 36.4177 434.027 37.0203 433.868 37.7707H430.559C430.65 36.6792 431.025 35.7355 431.685 34.9396C432.344 34.121 433.208 33.4843 434.277 33.0295C435.346 32.5748 436.551 32.3474 437.892 32.3474C440.075 32.3474 441.804 32.9158 443.077 34.0528C444.373 35.167 445.021 36.6792 445.021 38.5893V51.4483H441.713V47.9692H441.679C441.519 49.1517 440.928 50.084 439.905 50.7662C438.882 51.4483 437.574 51.7894 435.982 51.7894ZM436.903 49.163C438.268 49.163 439.393 48.8219 440.28 48.1398C441.19 47.4349 441.644 46.5367 441.644 45.4452V42.887H436.255C435.255 42.887 434.459 43.1599 433.868 43.7056C433.299 44.2514 433.015 44.9904 433.015 45.9227C433.015 46.946 433.356 47.7418 434.038 48.3103C434.72 48.8788 435.675 49.163 436.903 49.163ZM464.245 56.2236V51.4483H450.943V32.6884H454.32V48.4126H461.346V32.6884H464.723V48.4126H467.281V56.2236H464.245ZM471.395 51.4483V32.6884H474.567V42.6482C474.567 43.3077 474.544 44.0126 474.499 44.763C474.453 45.4906 474.396 46.2069 474.328 46.9119C474.26 47.594 474.203 48.1739 474.158 48.6514L481.593 32.6884H485.857V51.4483H482.685V41.4544C482.685 40.8177 482.708 40.1356 482.753 39.4079C482.799 38.6575 482.844 37.9526 482.89 37.2931C482.958 36.611 483.026 36.0311 483.094 35.5536L475.658 51.4483H471.395ZM490.994 51.4483L495.633 44.3196C494.291 43.9785 493.234 43.3077 492.461 42.3072C491.688 41.2839 491.301 40.0787 491.301 38.6916C491.301 36.8497 491.915 35.3944 493.143 34.3257C494.394 33.2342 496.099 32.6884 498.259 32.6884H506.309V51.4483H502.932V44.5583H499.078L494.883 51.4483H490.994ZM498.293 41.7273H502.932V35.5877H498.293C497.202 35.5877 496.326 35.8719 495.667 36.4404C495.03 36.9862 494.712 37.7366 494.712 38.6916C494.712 39.6239 495.03 40.3629 495.667 40.9087C496.326 41.4544 497.202 41.7273 498.293 41.7273ZM540.118 51.7894C537.822 51.7894 535.98 51.1527 534.593 49.8793C533.206 48.5832 532.512 46.8095 532.512 44.5583V39.5443C532.512 37.3159 533.206 35.565 534.593 34.2916C535.98 32.9954 537.822 32.3474 540.118 32.3474C542.324 32.3474 544.098 32.9386 545.439 34.121C546.781 35.2807 547.486 36.8725 547.554 38.8963H544.211C544.143 37.7593 543.745 36.8838 543.018 36.2699C542.29 35.6332 541.324 35.3148 540.118 35.3148C538.822 35.3148 537.788 35.69 537.014 36.4404C536.264 37.1681 535.889 38.2027 535.889 39.5443V44.5583C535.889 45.9227 536.264 46.9687 537.014 47.6964C537.788 48.424 538.822 48.7878 540.118 48.7878C541.324 48.7878 542.29 48.4809 543.018 47.8669C543.745 47.2529 544.143 46.3775 544.211 45.2405H547.554C547.486 47.2643 546.781 48.8674 545.439 50.0499C544.098 51.2096 542.324 51.7894 540.118 51.7894ZM553.203 51.4483V32.6884H567.665V51.4483H564.288V35.7582H556.58V51.4483H553.203ZM580.886 51.7212C578.589 51.7212 576.77 51.0845 575.429 49.8111C574.087 48.515 573.416 46.7527 573.416 44.5242V39.6126C573.416 37.3841 574.087 35.6332 575.429 34.3598C576.77 33.0636 578.589 32.4156 580.886 32.4156C583.183 32.4156 585.002 33.0636 586.343 34.3598C587.685 35.6332 588.356 37.3727 588.356 39.5784V44.5242C588.356 46.7527 587.685 48.515 586.343 49.8111C585.002 51.0845 583.183 51.7212 580.886 51.7212ZM580.886 48.7537C582.159 48.7537 583.16 48.4013 583.888 47.6964C584.615 46.9687 584.979 45.9113 584.979 44.5242V39.6126C584.979 38.2255 584.615 37.1795 583.888 36.4745C583.16 35.7469 582.159 35.383 580.886 35.383C579.613 35.383 578.612 35.7469 577.884 36.4745C577.157 37.1795 576.793 38.2255 576.793 39.6126V44.5242C576.793 45.9113 577.157 46.9687 577.884 47.6964C578.612 48.4013 579.613 48.7537 580.886 48.7537ZM594.141 57.5879V32.6884H597.484V36.2017H597.518C597.745 34.9965 598.302 34.0528 599.189 33.3706C600.099 32.6884 601.247 32.3474 602.634 32.3474C604.499 32.3474 605.999 32.9841 607.136 34.2575C608.273 35.5081 608.842 37.2136 608.842 39.3738V44.7289C608.842 46.9119 608.273 48.64 607.136 49.9134C606.022 51.1641 604.521 51.7894 602.634 51.7894C601.27 51.7894 600.133 51.4483 599.223 50.7662C598.314 50.0612 597.745 49.1062 597.518 47.901H597.45L597.518 52.1646V57.5879H594.141ZM601.474 48.8561C602.725 48.8561 603.703 48.4922 604.408 47.7646C605.113 47.0142 605.465 45.9454 605.465 44.5583V39.5443C605.465 38.18 605.113 37.134 604.408 36.4063C603.703 35.6559 602.725 35.2807 601.474 35.2807C600.246 35.2807 599.28 35.6559 598.575 36.4063C597.87 37.1567 597.518 38.2141 597.518 39.5784V44.5583C597.518 45.9227 597.87 46.9801 598.575 47.7305C599.28 48.4809 600.246 48.8561 601.474 48.8561ZM620.119 51.4483V35.69H613.399V32.6884H630.215V35.69H623.495V51.4483H620.119ZM635.011 51.4483V32.6884H638.183V42.6482C638.183 43.3077 638.16 44.0126 638.115 44.763C638.069 45.4906 638.012 46.2069 637.944 46.9119C637.876 47.594 637.819 48.1739 637.774 48.6514L645.209 32.6884H649.473V51.4483H646.301V41.4544C646.301 40.8177 646.324 40.1356 646.369 39.4079C646.415 38.6575 646.46 37.9526 646.506 37.2931C646.574 36.611 646.642 36.0311 646.71 35.5536L639.275 51.4483H635.011ZM655.463 51.4483V32.6884H663.615C665.525 32.6884 667.037 33.1205 668.151 33.9846C669.288 34.8487 669.857 36.0084 669.857 37.4637C669.857 38.6007 669.493 39.5216 668.765 40.2265C668.038 40.9314 667.049 41.3066 665.798 41.3521V41.4885C667.23 41.534 668.367 41.9774 669.209 42.8188C670.073 43.6601 670.505 44.7744 670.505 46.1615C670.505 47.7759 669.914 49.0607 668.731 50.0158C667.549 50.9708 665.946 51.4483 663.922 51.4483H655.463ZM658.771 40.4994H663.581C664.513 40.4994 665.241 40.2834 665.764 39.8513C666.287 39.3965 666.548 38.7712 666.548 37.9753C666.548 37.2022 666.287 36.5996 665.764 36.1676C665.241 35.7355 664.513 35.5195 663.581 35.5195H658.771V40.4994ZM658.771 48.6173H663.854C664.9 48.6173 665.707 48.3785 666.275 47.901C666.867 47.4007 667.162 46.7186 667.162 45.8545C667.162 44.9904 666.867 44.3196 666.275 43.8421C665.707 43.3418 664.9 43.0917 663.854 43.0917H658.771V48.6173ZM675.915 51.4483V32.6884H679.292V40.2947H687V32.6884H690.377V51.4483H687V43.3645H679.292V51.4483H675.915ZM703.598 51.7212C701.301 51.7212 699.482 51.0845 698.141 49.8111C696.799 48.515 696.128 46.7527 696.128 44.5242V39.6126C696.128 37.3841 696.799 35.6332 698.141 34.3598C699.482 33.0636 701.301 32.4156 703.598 32.4156C705.895 32.4156 707.714 33.0636 709.055 34.3598C710.397 35.6332 711.068 37.3727 711.068 39.5784V44.5242C711.068 46.7527 710.397 48.515 709.055 49.8111C707.714 51.0845 705.895 51.7212 703.598 51.7212ZM703.598 48.7537C704.871 48.7537 705.872 48.4013 706.6 47.6964C707.327 46.9687 707.691 45.9113 707.691 44.5242V39.6126C707.691 38.2255 707.327 37.1795 706.6 36.4745C705.872 35.7469 704.871 35.383 703.598 35.383C702.325 35.383 701.324 35.7469 700.596 36.4745C699.869 37.1795 699.505 38.2255 699.505 39.6126V44.5242C699.505 45.9113 699.869 46.9687 700.596 47.6964C701.324 48.4013 702.325 48.7537 703.598 48.7537ZM718.183 51.4483V32.6884H731.793V35.7924H721.56V51.4483H718.183ZM744.502 51.7212C742.205 51.7212 740.386 51.0845 739.045 49.8111C737.703 48.515 737.032 46.7527 737.032 44.5242V39.6126C737.032 37.3841 737.703 35.6332 739.045 34.3598C740.386 33.0636 742.205 32.4156 744.502 32.4156C746.799 32.4156 748.618 33.0636 749.959 34.3598C751.301 35.6332 751.972 37.3727 751.972 39.5784V44.5242C751.972 46.7527 751.301 48.515 749.959 49.8111C748.618 51.0845 746.799 51.7212 744.502 51.7212ZM744.502 48.7537C745.775 48.7537 746.776 48.4013 747.504 47.6964C748.231 46.9687 748.595 45.9113 748.595 44.5242V39.6126C748.595 38.2255 748.231 37.1795 747.504 36.4745C746.776 35.7469 745.775 35.383 744.502 35.383C743.229 35.383 742.228 35.7469 741.5 36.4745C740.773 37.1795 740.409 38.2255 740.409 39.6126V44.5242C740.409 45.9113 740.773 46.9687 741.5 47.6964C742.228 48.4013 743.229 48.7537 744.502 48.7537ZM328.231 87.4483V68.6884H342.693V87.4483H339.316V71.7582H331.608V87.4483H328.231ZM348.717 93.5879V68.6884H352.06V72.2017H352.094C352.321 70.9965 352.878 70.0528 353.765 69.3706C354.675 68.6884 355.823 68.3474 357.21 68.3474C359.075 68.3474 360.575 68.9841 361.712 70.2575C362.849 71.5081 363.418 73.2136 363.418 75.3738V80.7289C363.418 82.9119 362.849 84.64 361.712 85.9134C360.598 87.1641 359.097 87.7894 357.21 87.7894C355.846 87.7894 354.709 87.4483 353.799 86.7662C352.89 86.0612 352.321 85.1062 352.094 83.901H352.025L352.094 88.1646V93.5879H348.717ZM356.05 84.8561C357.301 84.8561 358.279 84.4922 358.984 83.7646C359.689 83.0142 360.041 81.9454 360.041 80.5583V75.5443C360.041 74.18 359.689 73.134 358.984 72.4063C358.279 71.6559 357.301 71.2807 356.05 71.2807C354.822 71.2807 353.856 71.6559 353.151 72.4063C352.446 73.1567 352.094 74.2141 352.094 75.5784V80.5583C352.094 81.9227 352.446 82.9801 353.151 83.7305C353.856 84.4809 354.822 84.8561 356.05 84.8561ZM376.366 87.7212C374.069 87.7212 372.25 87.0845 370.908 85.8111C369.567 84.515 368.896 82.7527 368.896 80.5242V75.6126C368.896 73.3841 369.567 71.6332 370.908 70.3598C372.25 69.0636 374.069 68.4156 376.366 68.4156C378.663 68.4156 380.482 69.0636 381.823 70.3598C383.165 71.6332 383.836 73.3727 383.836 75.5784V80.5242C383.836 82.7527 383.165 84.515 381.823 85.8111C380.482 87.0845 378.663 87.7212 376.366 87.7212ZM376.366 84.7537C377.639 84.7537 378.64 84.4013 379.367 83.6964C380.095 82.9687 380.459 81.9113 380.459 80.5242V75.6126C380.459 74.2255 380.095 73.1795 379.367 72.4745C378.64 71.7469 377.639 71.383 376.366 71.383C375.092 71.383 374.092 71.7469 373.364 72.4745C372.637 73.1795 372.273 74.2255 372.273 75.6126V80.5242C372.273 81.9113 372.637 82.9687 373.364 83.6964C374.092 84.4013 375.092 84.7537 376.366 84.7537ZM390.951 87.4483V68.6884H404.561V71.7924H394.328V87.4483H390.951ZM410.073 93.5879V68.6884H413.416V72.2017H413.45C413.677 70.9965 414.234 70.0528 415.121 69.3706C416.031 68.6884 417.179 68.3474 418.566 68.3474C420.431 68.3474 421.931 68.9841 423.068 70.2575C424.205 71.5081 424.774 73.2136 424.774 75.3738V80.7289C424.774 82.9119 424.205 84.64 423.068 85.9134C421.954 87.1641 420.453 87.7894 418.566 87.7894C417.202 87.7894 416.065 87.4483 415.155 86.7662C414.246 86.0612 413.677 85.1062 413.45 83.901H413.381L413.45 88.1646V93.5879H410.073ZM417.406 84.8561C418.657 84.8561 419.635 84.4922 420.34 83.7646C421.045 83.0142 421.397 81.9454 421.397 80.5583V75.5443C421.397 74.18 421.045 73.134 420.34 72.4063C419.635 71.6559 418.657 71.2807 417.406 71.2807C416.178 71.2807 415.212 71.6559 414.507 72.4063C413.802 73.1567 413.45 74.2141 413.45 75.5784V80.5583C413.45 81.9227 413.802 82.9801 414.507 83.7305C415.212 84.4809 416.178 84.8561 417.406 84.8561ZM435.982 87.7894C434.004 87.7894 432.446 87.2892 431.309 86.2886C430.195 85.2654 429.638 83.8896 429.638 82.1615C429.638 80.3878 430.218 79.0007 431.378 78.0002C432.56 76.9769 434.163 76.4653 436.187 76.4653H441.644V74.6916C441.644 73.6001 441.303 72.7588 440.621 72.1676C439.962 71.5536 439.041 71.2466 437.858 71.2466C436.79 71.2466 435.891 71.4854 435.164 71.9629C434.459 72.4177 434.027 73.0203 433.868 73.7707H430.559C430.65 72.6792 431.025 71.7355 431.685 70.9396C432.344 70.121 433.208 69.4843 434.277 69.0295C435.346 68.5748 436.551 68.3474 437.892 68.3474C440.075 68.3474 441.804 68.9158 443.077 70.0528C444.373 71.167 445.021 72.6792 445.021 74.5893V87.4483H441.713V83.9692H441.679C441.519 85.1517 440.928 86.084 439.905 86.7662C438.882 87.4483 437.574 87.7894 435.982 87.7894ZM436.903 85.163C438.268 85.163 439.393 84.8219 440.28 84.1398C441.19 83.4349 441.644 82.5367 441.644 81.4452V78.887H436.255C435.255 78.887 434.459 79.1599 433.868 79.7056C433.299 80.2514 433.015 80.9904 433.015 81.9227C433.015 82.946 433.356 83.7418 434.038 84.3103C434.72 84.8788 435.675 85.163 436.903 85.163ZM450.363 87.4483V68.6884H454.763L457.185 75.8513C457.435 76.6017 457.651 77.3294 457.833 78.0343C458.037 78.7392 458.185 79.2736 458.276 79.6374C458.344 79.2736 458.47 78.7392 458.651 78.0343C458.833 77.3294 459.049 76.5903 459.3 75.8172L461.585 68.6884H465.985V87.4483H462.779V84.4809C462.779 83.5031 462.79 82.3888 462.813 81.1382C462.858 79.8648 462.904 78.5687 462.949 77.2498C463.017 75.9309 463.074 74.6916 463.12 73.5319C463.165 72.3495 463.211 71.3376 463.256 70.4962L459.879 81.8545H456.571L453.126 70.6668C453.171 71.4172 453.217 72.3608 453.262 73.4978C453.308 74.612 453.353 75.8172 453.399 77.1133C453.444 78.3867 453.478 79.6715 453.501 80.9676C453.546 82.241 453.569 83.4121 453.569 84.4809V87.4483H450.363ZM470.815 87.4483V68.6884H475.215L477.637 75.8513C477.887 76.6017 478.103 77.3294 478.285 78.0343C478.489 78.7392 478.637 79.2736 478.728 79.6374C478.796 79.2736 478.922 78.7392 479.103 78.0343C479.285 77.3294 479.501 76.5903 479.752 75.8172L482.037 68.6884H486.437V87.4483H483.231V84.4809C483.231 83.5031 483.242 82.3888 483.265 81.1382C483.31 79.8648 483.356 78.5687 483.401 77.2498C483.469 75.9309 483.526 74.6916 483.572 73.5319C483.617 72.3495 483.663 71.3376 483.708 70.4962L480.331 81.8545H477.023L473.578 70.6668C473.623 71.4172 473.669 72.3608 473.714 73.4978C473.76 74.612 473.805 75.8172 473.851 77.1133C473.896 78.3867 473.93 79.6715 473.953 80.9676C473.998 82.241 474.021 83.4121 474.021 84.4809V87.4483H470.815ZM491.847 87.4483V68.6884H495.019V78.6482C495.019 79.3077 494.996 80.0126 494.951 80.763C494.905 81.4906 494.848 82.2069 494.78 82.9119C494.712 83.594 494.655 84.1739 494.61 84.6514L502.045 68.6884H506.309V87.4483H503.137V77.4544C503.137 76.8177 503.16 76.1356 503.205 75.4079C503.251 74.6575 503.296 73.9526 503.342 73.2931C503.41 72.611 503.478 72.0311 503.546 71.5536L496.11 87.4483H491.847ZM512.333 93.5879V68.6884H515.676V72.2017H515.71C515.937 70.9965 516.494 70.0528 517.381 69.3706C518.291 68.6884 519.439 68.3474 520.826 68.3474C522.691 68.3474 524.191 68.9841 525.328 70.2575C526.465 71.5081 527.034 73.2136 527.034 75.3738V80.7289C527.034 82.9119 526.465 84.64 525.328 85.9134C524.214 87.1641 522.713 87.7894 520.826 87.7894C519.462 87.7894 518.325 87.4483 517.415 86.7662C516.506 86.0612 515.937 85.1062 515.71 83.901H515.642L515.71 88.1646V93.5879H512.333ZM519.666 84.8561C520.917 84.8561 521.895 84.4922 522.6 83.7646C523.305 83.0142 523.657 81.9454 523.657 80.5583V75.5443C523.657 74.18 523.305 73.134 522.6 72.4063C521.895 71.6559 520.917 71.2807 519.666 71.2807C518.438 71.2807 517.472 71.6559 516.767 72.4063C516.062 73.1567 515.71 74.2141 515.71 75.5784V80.5583C515.71 81.9227 516.062 82.9801 516.767 83.7305C517.472 84.4809 518.438 84.8561 519.666 84.8561ZM539.982 87.7212C537.685 87.7212 535.866 87.0845 534.525 85.8111C533.183 84.515 532.512 82.7527 532.512 80.5242V75.6126C532.512 73.3841 533.183 71.6332 534.525 70.3598C535.866 69.0636 537.685 68.4156 539.982 68.4156C542.279 68.4156 544.098 69.0636 545.439 70.3598C546.781 71.6332 547.452 73.3727 547.452 75.5784V80.5242C547.452 82.7527 546.781 84.515 545.439 85.8111C544.098 87.0845 542.279 87.7212 539.982 87.7212ZM539.982 84.7537C541.255 84.7537 542.256 84.4013 542.984 83.6964C543.711 82.9687 544.075 81.9113 544.075 80.5242V75.6126C544.075 74.2255 543.711 73.1795 542.984 72.4745C542.256 71.7469 541.255 71.383 539.982 71.383C538.709 71.383 537.708 71.7469 536.98 72.4745C536.253 73.1795 535.889 74.2255 535.889 75.6126V80.5242C535.889 81.9113 536.253 82.9687 536.98 83.6964C537.708 84.4013 538.709 84.7537 539.982 84.7537ZM553.203 87.4483V68.6884H561.355C563.265 68.6884 564.777 69.1205 565.891 69.9846C567.028 70.8487 567.597 72.0084 567.597 73.4637C567.597 74.6007 567.233 75.5216 566.505 76.2265C565.778 76.9314 564.789 77.3066 563.538 77.3521V77.4885C564.97 77.534 566.107 77.9774 566.949 78.8188C567.813 79.6601 568.245 80.7744 568.245 82.1615C568.245 83.7759 567.654 85.0607 566.471 86.0158C565.289 86.9708 563.686 87.4483 561.662 87.4483H553.203ZM556.511 76.4994H561.321C562.253 76.4994 562.981 76.2834 563.504 75.8513C564.027 75.3965 564.288 74.7712 564.288 73.9753C564.288 73.2022 564.027 72.5996 563.504 72.1676C562.981 71.7355 562.253 71.5195 561.321 71.5195H556.511V76.4994ZM556.511 84.6173H561.594C562.64 84.6173 563.447 84.3785 564.015 83.901C564.607 83.4007 564.902 82.7186 564.902 81.8545C564.902 80.9904 564.607 80.3196 564.015 79.8421C563.447 79.3418 562.64 79.0917 561.594 79.0917H556.511V84.6173ZM579.146 87.7894C577.168 87.7894 575.61 87.2892 574.473 86.2886C573.359 85.2654 572.802 83.8896 572.802 82.1615C572.802 80.3878 573.382 79.0007 574.542 78.0002C575.724 76.9769 577.327 76.4653 579.351 76.4653H584.808V74.6916C584.808 73.6001 584.467 72.7588 583.785 72.1676C583.126 71.5536 582.205 71.2466 581.022 71.2466C579.954 71.2466 579.055 71.4854 578.328 71.9629C577.623 72.4177 577.191 73.0203 577.032 73.7707H573.723C573.814 72.6792 574.189 71.7355 574.849 70.9396C575.508 70.121 576.372 69.4843 577.441 69.0295C578.51 68.5748 579.715 68.3474 581.056 68.3474C583.239 68.3474 584.968 68.9158 586.241 70.0528C587.537 71.167 588.185 72.6792 588.185 74.5893V87.4483H584.877V83.9692H584.843C584.683 85.1517 584.092 86.084 583.069 86.7662C582.046 87.4483 580.738 87.7894 579.146 87.7894ZM580.067 85.163C581.432 85.163 582.557 84.8219 583.444 84.1398C584.354 83.4349 584.808 82.5367 584.808 81.4452V78.887H579.419C578.419 78.887 577.623 79.1599 577.032 79.7056C576.463 80.2514 576.179 80.9904 576.179 81.9227C576.179 82.946 576.52 83.7418 577.202 84.3103C577.884 84.8788 578.839 85.163 580.067 85.163ZM594.107 87.4483V68.6884H597.484V76.2947H605.192V68.6884H608.569V87.4483H605.192V79.3645H597.484V87.4483H594.107ZM614.559 87.4483V68.6884H617.731V78.6482C617.731 79.3077 617.708 80.0126 617.663 80.763C617.617 81.4906 617.56 82.2069 617.492 82.9119C617.424 83.594 617.367 84.1739 617.322 84.6514L624.757 68.6884H629.021V87.4483H625.849V77.4544C625.849 76.8177 625.872 76.1356 625.917 75.4079C625.963 74.6575 626.008 73.9526 626.054 73.2931C626.122 72.611 626.19 72.0311 626.258 71.5536L618.822 87.4483H614.559ZM634.158 87.4483L638.797 80.3196C637.455 79.9785 636.398 79.3077 635.625 78.3072C634.852 77.2839 634.465 76.0787 634.465 74.6916C634.465 72.8497 635.079 71.3944 636.307 70.3257C637.558 69.2342 639.263 68.6884 641.423 68.6884H649.473V87.4483H646.096V80.5583H642.242L638.047 87.4483H634.158ZM641.457 77.7273H646.096V71.5877H641.457C640.366 71.5877 639.491 71.8719 638.831 72.4404C638.194 72.9862 637.876 73.7366 637.876 74.6916C637.876 75.6239 638.194 76.3629 638.831 76.9087C639.491 77.4544 640.366 77.7273 641.457 77.7273ZM675.915 87.4483V62.5488H683.999C685.59 62.5488 686.966 62.8558 688.126 63.4698C689.286 64.0837 690.184 64.9478 690.82 66.0621C691.457 67.1535 691.776 68.4611 691.776 69.9846C691.776 71.4854 691.457 72.7929 690.82 73.9071C690.184 74.9986 689.274 75.8513 688.092 76.4653C686.932 77.0792 685.568 77.3862 683.999 77.3862H679.292V87.4483H675.915ZM679.292 74.3846H683.999C685.318 74.3846 686.364 73.9867 687.137 73.1908C687.91 72.3722 688.296 71.3035 688.296 69.9846C688.296 68.643 687.91 67.5742 687.137 66.7784C686.364 65.9597 685.318 65.5504 683.999 65.5504H679.292V74.3846ZM703.598 87.7212C701.301 87.7212 699.482 87.0845 698.141 85.8111C696.799 84.515 696.128 82.7527 696.128 80.5242V75.6126C696.128 73.3841 696.799 71.6332 698.141 70.3598C699.482 69.0636 701.301 68.4156 703.598 68.4156C705.895 68.4156 707.714 69.0636 709.055 70.3598C710.397 71.6332 711.068 73.3727 711.068 75.5784V80.5242C711.068 82.7527 710.397 84.515 709.055 85.8111C707.714 87.0845 705.895 87.7212 703.598 87.7212ZM703.598 84.7537C704.871 84.7537 705.872 84.4013 706.6 83.6964C707.327 82.9687 707.691 81.9113 707.691 80.5242V75.6126C707.691 74.2255 707.327 73.1795 706.6 72.4745C705.872 71.7469 704.871 71.383 703.598 71.383C702.325 71.383 701.324 71.7469 700.596 72.4745C699.869 73.1795 699.505 74.2255 699.505 75.6126V80.5242C699.505 81.9113 699.869 82.9687 700.596 83.6964C701.324 84.4013 702.325 84.7537 703.598 84.7537ZM724.186 87.7894C721.89 87.7894 720.048 87.1527 718.661 85.8793C717.274 84.5832 716.58 82.8095 716.58 80.5583V75.5443C716.58 73.3159 717.274 71.565 718.661 70.2916C720.048 68.9954 721.89 68.3474 724.186 68.3474C726.392 68.3474 728.166 68.9386 729.507 70.121C730.849 71.2807 731.554 72.8725 731.622 74.8963H728.279C728.211 73.7593 727.813 72.8838 727.086 72.2699C726.358 71.6332 725.392 71.3148 724.186 71.3148C722.89 71.3148 721.856 71.69 721.083 72.4404C720.332 73.1681 719.957 74.2027 719.957 75.5443V80.5583C719.957 81.9227 720.332 82.9687 721.083 83.6964C721.856 84.424 722.89 84.7878 724.186 84.7878C725.392 84.7878 726.358 84.4809 727.086 83.8669C727.813 83.2529 728.211 82.3775 728.279 81.2405H731.622C731.554 83.2643 730.849 84.8674 729.507 86.0499C728.166 87.2096 726.392 87.7894 724.186 87.7894ZM744.638 87.7894C742.342 87.7894 740.5 87.1527 739.113 85.8793C737.726 84.5832 737.032 82.8095 737.032 80.5583V75.5443C737.032 73.3159 737.726 71.565 739.113 70.2916C740.5 68.9954 742.342 68.3474 744.638 68.3474C746.844 68.3474 748.618 68.9386 749.959 70.121C751.301 71.2807 752.006 72.8725 752.074 74.8963H748.731C748.663 73.7593 748.265 72.8838 747.538 72.2699C746.81 71.6332 745.844 71.3148 744.638 71.3148C743.342 71.3148 742.308 71.69 741.535 72.4404C740.784 73.1681 740.409 74.2027 740.409 75.5443V80.5583C740.409 81.9227 740.784 82.9687 741.535 83.6964C742.308 84.424 743.342 84.7878 744.638 84.7878C745.844 84.7878 746.81 84.4809 747.538 83.8669C748.265 83.2529 748.663 82.3775 748.731 81.2405H752.074C752.006 83.2643 751.301 84.8674 749.959 86.0499C748.618 87.2096 746.844 87.7894 744.638 87.7894ZM757.723 87.4483V68.6884H760.895V78.6482C760.895 79.3077 760.872 80.0126 760.827 80.763C760.781 81.4906 760.725 82.2069 760.656 82.9119C760.588 83.594 760.531 84.1739 760.486 84.6514L767.921 68.6884H772.185V87.4483H769.013V77.4544C769.013 76.8177 769.036 76.1356 769.081 75.4079C769.127 74.6575 769.172 73.9526 769.218 73.2931C769.286 72.611 769.354 72.0311 769.422 71.5536L761.987 87.4483H757.723ZM778.175 87.4483V68.6884H781.347V78.6482C781.347 79.3077 781.324 80.0126 781.279 80.763C781.233 81.4906 781.177 82.2069 781.108 82.9119C781.04 83.594 780.983 84.1739 780.938 84.6514L788.373 68.6884H792.637V87.4483H789.465V77.4544C789.465 76.8177 789.488 76.1356 789.533 75.4079C789.579 74.6575 789.624 73.9526 789.67 73.2931C789.738 72.611 789.806 72.0311 789.874 71.5536L782.439 87.4483H778.175Z" fill="#1B1C21"/>
</svg>
